<?xml version="1.0" encoding="utf-8"?>
<!-- Generator: Adobe Illustrator 16.2.0, SVG Export Plug-In . SVG Version: 6.00 Build 0)  -->
<!DOCTYPE svg PUBLIC "-//W3C//DTD SVG 1.1//EN" "http://www.w3.org/Graphics/SVG/1.1/DTD/svg11.dtd">
<svg version="1.1" id="Layer_1" xmlns="http://www.w3.org/2000/svg" xmlns:xlink="http://www.w3.org/1999/xlink" x="0px" y="0px"
	 width="500px" height="500px" viewBox="0 0 500 500" enable-background="new 0 0 500 500" xml:space="preserve">
<g display="none">
	<g display="inline">
		<radialGradient id="SVGID_1_" cx="250" cy="250" r="250" gradientUnits="userSpaceOnUse">
			<stop  offset="0.0054" style="stop-color:#E6E6E6"/>
			<stop  offset="0.1463" style="stop-color:#E0E4E7"/>
			<stop  offset="0.3309" style="stop-color:#D0DEEA"/>
			<stop  offset="0.5396" style="stop-color:#B5D5EF"/>
			<stop  offset="0.766" style="stop-color:#8FC7F6"/>
			<stop  offset="1" style="stop-color:#60B7FF"/>
		</radialGradient>
		<path fill="url(#SVGID_1_)" d="M500,440c0,33.137-26.863,60-60,60H60c-33.137,0-60-26.863-60-60V60C0,26.863,26.863,0,60,0h380
			c33.137,0,60,26.863,60,60V440z"/>
		<radialGradient id="SVGID_2_" cx="250" cy="250" r="250.5" gradientUnits="userSpaceOnUse">
			<stop  offset="0" style="stop-color:#C4DFFF"/>
			<stop  offset="0.1593" style="stop-color:#BEDCFF"/>
			<stop  offset="0.3678" style="stop-color:#AED5FF"/>
			<stop  offset="0.6035" style="stop-color:#93C8FF"/>
			<stop  offset="0.8575" style="stop-color:#6DB7FF"/>
			<stop  offset="1" style="stop-color:#55ACFF"/>
		</radialGradient>
		<path fill="none" stroke="url(#SVGID_2_)" stroke-miterlimit="10" d="M500,440c0,33.137-26.863,60-60,60H60
			c-33.137,0-60-26.863-60-60V60C0,26.863,26.863,0,60,0h380c33.137,0,60,26.863,60,60V440z"/>
	</g>
	<defs>
		<filter id="Adobe_OpacityMaskFilter" filterUnits="userSpaceOnUse" x="-0.5" y="-0.5" width="501" height="501">
			
				<feColorMatrix  type="matrix" values="-1 0 0 0 1  0 -1 0 0 1  0 0 -1 0 1  0 0 0 1 0" color-interpolation-filters="sRGB" result="source"/>
		</filter>
	</defs>
	<mask maskUnits="userSpaceOnUse" x="-0.5" y="-0.5" width="501" height="501" id="SVGID_3_" display="inline">
		<g filter="url(#Adobe_OpacityMaskFilter)">
			<image overflow="visible" width="506" height="506" xlink:href="9A212713.jpg"  transform="matrix(1 0 0 1 -3 -3)">
			</image>
		</g>
	</mask>
	<g display="inline" opacity="0.1" mask="url(#SVGID_3_)">
		<path d="M500,440c0,33.137-26.863,60-60,60H60c-33.137,0-60-26.863-60-60V60C0,26.863,26.863,0,60,0h380c33.137,0,60,26.863,60,60
			V440z"/>
		<path fill="none" stroke="#000000" stroke-miterlimit="10" d="M500,440c0,33.137-26.863,60-60,60H60c-33.137,0-60-26.863-60-60V60
			C0,26.863,26.863,0,60,0h380c33.137,0,60,26.863,60,60V440z"/>
	</g>
</g>
<polyline fill="#F4F4F4" points="176.517,328.081 331.194,328.081 371.922,328.081 399.537,384.794 365.957,445.731 
	327.406,456.924 276.29,435.703 275.463,407.958 259.28,408.557 248.43,408.557 223.949,442.236 183.787,456.831 123.332,428.979 
	109.486,371.09 142.032,323.677 "/>
<polygon fill="#FFFFFF" points="78,90 148.835,55.542 203.609,45.077 244.009,56.708 255.004,68.58 306.399,45.077 353.104,52.982 
	399.537,71.667 437.169,87.208 436.361,273.103 72.831,273.103 "/>
<g>
	<g>
		<g>
			<path d="M418.628,68.667h-24.07c-34.902-15.582-64.537-23.59-88.158-23.59c-30.593,0-44.916,13.332-51.396,23.502
				c-6.475-10.17-20.795-23.502-51.395-23.502c-23.621,0-53.258,8.016-88.169,23.59H91.372c-10.239,0-18.541,8.301-18.541,18.541
				v180.471c0,10.241,8.302,18.539,18.541,18.539h327.256c10.242,0,18.541-8.298,18.541-18.539V87.208
				C437.169,76.969,428.87,68.667,418.628,68.667z M249.984,79.921c-0.055,0.286-0.079,0.576-0.079,0.866v170.209
				c-8.107-9.361-21.688-16.525-44.411-16.525c-40.561,0-91.477,22.241-109.658,30.841V88.233
				c15.574-7.928,30.112-14.406,43.669-19.566c24.887-9.466,46.382-14.319,64.097-14.319c21.737,0,33.614,7.272,40.042,14.319
				c3.709,4.067,5.619,8.055,6.521,10.52C250.061,79.6,249.99,79.896,249.984,79.921z M414.162,265.313
				c-18.181-8.603-69.095-30.841-109.654-30.841c-22.729,0-36.304,7.159-44.412,16.525c-0.299,0.343-0.644,0.664-0.92,1.014V81.311
				c0.096-0.401,0.307-1.123,0.666-2.088c0.915-2.46,2.861-6.463,6.61-10.55c6.465-7.046,18.343-14.32,39.944-14.32
				c17.714,0,39.2,4.853,64.097,14.32c13.567,5.161,28.095,11.64,43.667,19.568v177.072H414.162z"/>
		</g>
	</g>
	<g id="XMLID_1142_">
		<path id="XMLID_1230_" d="M246.216,265.204v39.344h-22.92v8.252h-47.022l-0.47,0.015c-37.924,2.342-67.629,33.959-67.629,71.979
			c0,39.771,32.357,72.13,72.13,72.13c30.918,0,58.129-19.608,68.126-48.367h10.851c9.998,28.759,37.208,48.367,68.126,48.367
			c39.773,0,72.131-32.358,72.131-72.13c0-38.021-29.706-69.638-67.629-71.979l-0.235-0.015h-47.258v-8.252h-22.919v-39.344H246.216
			z M327.407,441.644c-25.959,0-48.599-17.53-55.062-42.631l-1.475-5.736h-34.03l-1.476,5.736
			c-6.461,25.1-29.103,42.631-55.06,42.631c-31.349,0-56.852-25.502-56.852-56.85c0-29.889,23.29-54.755,53.064-56.713h154.677
			c29.772,1.958,53.064,26.824,53.064,56.713C384.258,416.142,358.754,441.644,327.407,441.644z"/>
		<polygon id="XMLID_1235_" fill="#FF2C2C" points="199.993,353.936 183.786,370.142 167.58,353.936 156.776,364.739 
			172.982,380.947 156.776,397.153 167.58,407.958 183.786,391.751 199.993,407.958 210.798,397.153 194.591,380.947 
			210.798,364.739 		"/>
		<path id="XMLID_1238_" fill="#FF2C2C" d="M329.17,353.188c-16.699,0-30.284,13.586-30.284,30.285
			c0,16.701,13.585,30.286,30.284,30.286s30.286-13.585,30.286-30.286C359.456,366.773,345.869,353.188,329.17,353.188z
			 M329.17,398.48c-8.273,0-15.005-6.733-15.005-15.008c0-8.273,6.731-15.006,15.005-15.006c8.275,0,15.008,6.732,15.008,15.006
			C344.178,391.747,337.445,398.48,329.17,398.48z"/>
	</g>
</g>
<text transform="matrix(0.9946 -0.104 0.104 0.9946 143.0781 206.8574)" display="none" fill="#0080FF" stroke="#0080FF" stroke-width="8" stroke-miterlimit="10" font-family="'HipsterishFontNormal'" font-size="185.1642">e</text>
<text transform="matrix(0.9955 0.0946 -0.0946 0.9955 317.1875 201.9014)" display="none" fill="#0080FF" stroke="#0080FF" stroke-width="8" stroke-miterlimit="10" font-family="'HipsterishFontNormal'" font-size="160">l</text>
<path fill="none" stroke="#0080FF" stroke-width="13" stroke-linecap="round" stroke-linejoin="round" stroke-miterlimit="10" d="
	M196.83,157.938c0,0,3.547,30.288-10.203,39.038c-9.51,6.052-30.75,4.901-39.046-18.038c-7.863-21.741-12.414-44.662,3.75-62
	c16.046-17.212,35.296-6.962,38.5,1c0,0,6.047,9.288,4.547,16.538c0,0-19.25,8.5-50.672,4.75"/>
<path fill="none" stroke="#0080FF" stroke-width="13" stroke-linecap="round" stroke-linejoin="round" stroke-miterlimit="10" d="
	M338.529,100.254l-6.75,72.5c0,0-2.052,10.471-2.25,13.5c-0.571,8.727-0.25,17.663,19.75,17.75"/>
</svg>
