<?xml version="1.0" encoding="utf-8"?>
<!-- Generator: Adobe Illustrator 16.2.0, SVG Export Plug-In . SVG Version: 6.00 Build 0)  -->
<!DOCTYPE svg PUBLIC "-//W3C//DTD SVG 1.1//EN" "http://www.w3.org/Graphics/SVG/1.1/DTD/svg11.dtd">
<svg version="1.1" id="Layer_1" xmlns="http://www.w3.org/2000/svg" xmlns:xlink="http://www.w3.org/1999/xlink" x="0px" y="0px"
	 width="100px" height="125px" viewBox="0 0 100 125" enable-background="new 0 0 100 125" xml:space="preserve">
<g>
	<polyline fill="#F4F4F4" points="30.029,81.01 69.386,81.01 79.751,81.01 86.778,95.44 78.232,110.947 68.424,113.795 
		55.416,108.395 55.206,101.335 51.088,101.487 48.327,101.487 42.098,110.058 31.879,113.771 16.496,106.684 12.972,91.953 
		21.254,79.889 	"/>
	<polygon fill="#FFFFFF" points="4.961,20.429 22.984,11.661 36.922,8.998 47.203,11.958 50,14.979 63.078,8.998 74.962,11.01 
		86.778,15.763 96.354,19.718 96.148,67.021 3.646,67.021 	"/>
	<g>
		<g>
			<g>
				<path d="M91.635,15h-6.124c-8.881-3.965-16.422-6.002-22.433-6.002c-7.784,0-11.43,3.391-13.078,5.979
					c-1.648-2.588-5.292-5.979-13.078-5.979c-6.011,0-13.552,2.04-22.435,6.002H8.363c-2.606,0-4.718,2.113-4.718,4.718V65.64
					c0,2.607,2.112,4.718,4.718,4.718h83.271c2.606,0,4.719-2.11,4.719-4.718V19.718C96.354,17.113,94.241,15,91.635,15z
					 M48.722,17.864c-0.014,0.074-0.02,0.147-0.02,0.22v43.311c-2.063-2.382-5.518-4.205-11.301-4.205
					c-10.321,0-23.276,5.66-27.903,7.848V19.98c3.963-2.019,7.662-3.667,11.112-4.98c6.332-2.408,11.802-3.643,16.31-3.643
					c5.531,0,8.554,1.85,10.189,3.643c0.944,1.035,1.43,2.051,1.659,2.678C48.743,17.783,48.725,17.858,48.722,17.864z
					 M90.498,65.038c-4.625-2.188-17.581-7.848-27.903-7.848c-5.781,0-9.235,1.822-11.3,4.205c-0.076,0.088-0.162,0.169-0.232,0.259
					V18.217c0.023-0.101,0.078-0.285,0.168-0.531c0.234-0.625,0.729-1.645,1.683-2.684c1.646-1.792,4.668-3.643,10.165-3.643
					c4.507,0,9.974,1.234,16.311,3.643c3.45,1.313,7.146,2.962,11.109,4.979V65.038L90.498,65.038z"/>
			</g>
		</g>
		<g id="XMLID_1142_">
			<path id="XMLID_1230_" d="M47.764,65.012v10.01h-5.832v2.101H29.967l-0.12,0.002c-9.65,0.598-17.208,8.642-17.208,18.316
				c0,10.12,8.233,18.354,18.354,18.354c7.867,0,14.791-4.989,17.335-12.308h2.761c2.543,7.318,9.468,12.308,17.336,12.308
				c10.119,0,18.354-8.234,18.354-18.354c0-9.675-7.559-17.719-17.208-18.316l-0.06-0.002H57.483v-2.101h-5.831v-10.01H47.764z
				 M68.424,109.906c-6.605,0-12.366-4.46-14.012-10.849l-0.375-1.459h-8.659l-0.376,1.459c-1.644,6.389-7.405,10.849-14.01,10.849
				c-7.977,0-14.466-6.489-14.466-14.466c0-7.604,5.926-13.933,13.502-14.431h39.357c7.576,0.498,13.504,6.826,13.504,14.431
				C82.89,103.417,76.4,109.906,68.424,109.906z"/>
			<polygon id="XMLID_1235_" fill="#FF2C2C" points="36.002,87.589 31.878,91.713 27.755,87.589 25.005,90.337 29.13,94.462 
				25.005,98.586 27.755,101.335 31.878,97.212 36.002,101.335 38.751,98.586 34.628,94.462 38.751,90.337 			"/>
			<path id="XMLID_1238_" fill="#FF2C2C" d="M68.872,87.398c-4.249,0-7.706,3.457-7.706,7.707c0,4.248,3.457,7.704,7.706,7.704
				c4.248,0,7.706-3.456,7.706-7.704C76.578,90.855,73.12,87.398,68.872,87.398z M68.872,98.924c-2.105,0-3.818-1.714-3.818-3.818
				c0-2.105,1.713-3.819,3.818-3.819c2.106,0,3.818,1.712,3.818,3.819C72.69,97.21,70.979,98.924,68.872,98.924z"/>
		</g>
	</g>
	<path fill="none" stroke="#0080FF" stroke-width="4" stroke-linecap="round" stroke-linejoin="round" stroke-miterlimit="10" d="
		M35.197,37.716c0,0,0.902,7.707-2.596,9.934c-2.42,1.54-7.824,1.247-9.935-4.59c-2.001-5.533-3.159-11.364,0.954-15.777
		c4.083-4.379,8.981-1.771,9.796,0.254c0,0,1.539,2.365,1.156,4.209c0,0-4.897,2.162-12.893,1.208"/>
	<path fill="none" stroke="#0080FF" stroke-width="4" stroke-linecap="round" stroke-linejoin="round" stroke-miterlimit="10" d="
		M71.253,23.039l-1.716,18.447c0,0-0.524,2.666-0.574,3.436c-0.144,2.221-0.064,4.494,5.026,4.517"/>
</g>
</svg>
